<svg xmlns="http://www.w3.org/2000/svg" width="30" height="30" viewBox="0 0 30 30">
  <path id="iconmonstr-twitter-4" d="M15,0A15,15,0,1,0,30,15,15,15,0,0,0,15,0Zm7.583,12.056A10.21,10.21,0,0,1,6.875,21.122a7.223,7.223,0,0,0,5.315-1.486,3.6,3.6,0,0,1-3.355-2.494,3.6,3.6,0,0,0,1.623-.061,3.6,3.6,0,0,1-2.88-3.566,3.582,3.582,0,0,0,1.626.449A3.6,3.6,0,0,1,8.093,9.17a10.191,10.191,0,0,0,7.4,3.751,3.593,3.593,0,0,1,6.119-3.275,7.161,7.161,0,0,0,2.28-.871,3.605,3.605,0,0,1-1.579,1.986,7.162,7.162,0,0,0,2.061-.566A7.206,7.206,0,0,1,22.583,12.056Z" fill="#f3f3f3"/>
</svg>
