<?xml version="1.0" encoding="UTF-8"?>
<svg width="269px" height="258px" viewBox="0 0 269 258" version="1.1" xmlns="http://www.w3.org/2000/svg" xmlns:xlink="http://www.w3.org/1999/xlink">
    <!-- Generator: Sketch 57.1 (83088) - https://sketch.com -->
    <title>Logo_5</title>
    <desc>Created with Sketch.</desc>
    <g id="Brandbook" stroke="none" stroke-width="1" fill="none" fill-rule="evenodd">
        <g id="Artboard" transform="translate(-251.000000, -68.000000)">
            <g id="Logo_5" transform="translate(251.000000, 68.000000)">
                <path d="M0,48 L37.6535237,48 L37.6535237,130.08969 C37.6535237,144.332862 49.1998962,155.879235 63.4430685,155.879235 C77.6862408,155.879235 89.2326133,144.332862 89.2326133,130.08969 L89.2326133,48 L89.2326133,48 L129.189084,48 L129.189084,135.067824 C129.189084,169.530392 101.251652,197.467824 66.7890837,197.467824 L62.4,197.467824 C27.9374316,197.467824 4.22044741e-15,169.530392 0,135.067824 L0,48 L0,48 Z" id="Path-2" fill="#0EB7B8"></path>
                <polygon id="Path-4" fill="#E43524" points="91.2 48 128.476192 48 128.476192 196.36335 91.2 196.36335"></polygon>
                <path d="M89.2326133,48 L129.189084,48 C129.240158,78.637751 129.240158,99.437751 129.189084,110.4 C129.080569,133.690853 128.476192,150.607604 126.839624,153.6 C125.203056,156.592396 124.335235,163.981784 113.723562,176.205169 C103.111889,188.428554 93.1375266,191.473995 89.2326133,193.513834 C87.5322248,194.402078 88.7219798,173.592072 89.2326133,132 C89.3298598,124.079087 89.107243,115.533435 89.2326133,106.07464 C89.3820696,94.7986307 89.3820696,75.4404173 89.2326133,48 Z" id="Path-4-Copy" fill="#E6B30E"></path>
                <g id="Group-2" transform="translate(144.000000, 48.000000)">
                    <path d="M0,0 L36.3742789,0 L36.3742789,31.4403682 C36.3742789,45.1996414 47.5283737,56.3537362 61.2876469,56.3537362 C75.0469202,56.3537362 86.201015,45.1996414 86.201015,31.4403682 L86.201015,0 L86.201015,0 L124.8,0 L124.8,24 C124.8,58.4625684 96.8625684,86.4 62.4,86.4 C27.9374316,86.4 -2.88497995e-15,58.4625684 0,24 L0,0 L0,0 Z" id="Path-2-Copy" fill="#E6B30E"></path>
                    <path d="M0,62.4 L36.3742789,62.4 L36.3742789,93.8403682 C36.3742789,107.599641 47.5283737,118.753736 61.2876469,118.753736 C75.0469202,118.753736 86.201015,107.599641 86.201015,93.8403682 L86.201015,62.4 L86.201015,62.4 L124.8,62.4 L124.8,86.4 C124.8,120.862568 96.8625684,148.8 62.4,148.8 C27.9374316,148.8 -2.88497995e-15,120.862568 0,86.4 L0,62.4 L0,62.4 Z" id="Path-2-Copy-2" fill="#0EB7B8" transform="translate(62.400000, 105.600000) scale(1, -1) translate(-62.400000, -105.600000) "></path>
                </g>
                <g id="Group-2-Copy" transform="translate(169.200000, 110.400000)" fill="#E43524">
                    <path d="M37.2,0 C50.9606956,5.67430855e-15 63.6810517,4.45422318 73.9979251,11.9995264 C63.6810517,19.5457768 50.9606956,24 37.2,24 C23.4393356,24 10.7190061,19.5457971 0.402145272,12.000525 C10.7190061,4.45420293 23.4393356,0 37.2,0 Z" id="Combined-Shape"></path>
                </g>
                <text id="conference" font-family="GilbertBoldPreview5, Gilbert" font-size="62.4" font-weight="bold" fill="#F3F3F3">
                    <tspan x="0" y="257.4">conference</tspan>
                </text>
                <path d="M96,0 L109.848,0 C120.147006,-1.89189671e-15 128.496,8.34899399 128.496,18.648 L128.496,37.296 L128.496,37.296 L91.2,37.296 L91.2,4.8 C91.2,2.1490332 93.3490332,-2.17756056e-15 96,0 Z" id="Rectangle" fill="#E43524"></path>
            </g>
        </g>
    </g>
</svg>